<svg id="Ebene_1" data-name="Ebene 1" xmlns="http://www.w3.org/2000/svg" viewBox="0 0 927.87 128.6"><defs><style>.cls-1,.cls-2{fill:#081e27;}.cls-2{fill-rule:evenodd;}.cls-3{fill:#f67e3b;}</style></defs><path class="cls-1" d="M651.85,123.66h-20V2.76l20-2.76V49.41c12.27-10.84,31.5-11.71,45.62-4,12.47,7.21,17.32,22.37,17,36.1v42.21h-20V83.27c.24-12.22-7.31-24.63-20.66-24.26-13.58-.28-22.46,11.86-22,24.73Z"/><path class="cls-1" d="M759.28,42.55l-20,2.64v78.47h20Z"/><path class="cls-1" d="M742.92,26.73a12.52,12.52,0,0,0,18.83-10.88A12.55,12.55,0,0,0,742.92,4.78C734.57,9.52,734.58,22,742.92,26.73Z"/><path class="cls-2" d="M862.3,120.08c28.7,16,65.53-3.58,65.57-37.14-.2-33.79-36.6-53.08-65.57-37.13A42.48,42.48,0,0,0,862.3,120.08Zm34-16.38c-15.79,9.5-36.15-2.21-36-20.6-.17-18.82,19.81-30,36-20.93C911.71,71.05,911.82,94.88,896.3,103.7Z"/><path class="cls-1" d="M806.73,62.37a9.44,9.44,0,0,1,7.14-2.71,12.85,12.85,0,0,1,11.37,4.42l9.49-15.78c-18.62-18.53-50.85-6-51,20.58v54.26H804V68.91A9.27,9.27,0,0,1,806.73,62.37Z"/><path class="cls-1" d="M164.79,121.18c15.12,7.37,38.61,6.43,49.48-7.77a23,23,0,0,0,1.32-26c-8.94-12.67-26.71-10-39.05-16.55-3.82-1.8-4.3-7.24-1.66-10.25,5.18-5.34,13.84-4.64,20.2-2a14.24,14.24,0,0,1,6.78,7.1l14.92-8.43C210.66,46,197.59,39.86,185,40.27c-10.4-.21-21.41,3.66-27.6,12.38-5,7.37-5.52,17.9-.66,25.48,9.71,14,35.15,10,41.53,18.57a7.63,7.63,0,0,1-1,8.43c-3.22,3.31-8.1,4.32-12.57,4.3-7.43.28-15.2-3.39-18.54-10.25l-14.89,8.27A33.25,33.25,0,0,0,164.79,121.18Z"/><path class="cls-2" d="M254.19,120.06c28.83,16.06,65.61-3.6,65.66-37.26-.19-33.87-36.59-53.31-65.67-37.27C225,62,225.05,103.63,254.19,120.06Zm34.06-16.41c-8.1,5.06-17.41,3.57-24.33,0C237.44,86.27,259.73,47.16,288.26,62,303.66,70.84,303.77,94.82,288.25,103.65Z"/><path class="cls-1" d="M358.58,122.35c19.14,8.19,45,.86,53.79-18.86l-16.52-9.1c-5.71,11.79-21,16-32.1,9.25-15.25-9.22-15.51-32.43,0-41.52,10.81-7.06,26.66-2.43,32.1,9.25l16.52-9.1c-11.46-25.46-48.9-29.36-67.53-9.72C323.31,74,330.5,110.69,358.58,122.35Z"/><path class="cls-1" d="M450.89,42.25l-20,2.78v78.64h20Z"/><path class="cls-1" d="M434.49,26.37a12.56,12.56,0,0,0,18.87-10.92A12.56,12.56,0,0,0,434.49,4.37C426.14,9.11,426.15,21.62,434.49,26.37Z"/><path class="cls-2" d="M490.79,119.86c15.41,9.74,38.53,7.47,49.15-8.22v12h18.87V82.77a42.31,42.31,0,0,0-5.79-22c-22.46-36.9-81.72-21.95-81.75,22C471,97.42,478.25,112.07,490.79,119.86Zm36.41-16.21c-16,9.48-36.08-2.18-36.06-20.69a24.47,24.47,0,0,1,11.59-21,25.12,25.12,0,0,1,24.48,0C542.62,70.84,542.72,94.82,527.2,103.65Z"/><path class="cls-1" d="M603.65,6.68l-20,2.78V123.64h20Z"/><path class="cls-3" d="M34.24,63.11c8.47-9.17-4.12-21.78-13.3-13.3L2.8,68c-8.47,9.16,4.12,21.77,13.3,13.3Z"/><path class="cls-3" d="M78.08,108.36c8.47-9.17-4.12-21.77-13.3-13.3L47.34,112.5c-8.47,9.17,4.12,21.78,13.3,13.3Z"/><path class="cls-3" d="M85,57.61c5-4.46,3.36-13.23-2.91-15.59A9.43,9.43,0,0,0,71.7,44.31L37.55,78.45C32,84.27,36.2,94.24,44.27,94.29a9.39,9.39,0,0,0,6.58-2.54Z"/><path class="cls-3" d="M46.74,46.45a9.36,9.36,0,0,0,9.13-11.11C54.34,27.29,43.5,25.14,39,32,34.86,38,39.45,46.58,46.74,46.45Z"/><path class="cls-3" d="M23.34,114.72a9.38,9.38,0,0,0,9.14-11.13c-1.53-8-12.38-10.21-16.87-3.35C11.45,106.24,16.05,114.84,23.34,114.72Z"/><path class="cls-3" d="M91.29,91a9.35,9.35,0,0,0,9.12-11.11c-1.52-8-12.36-10.2-16.85-3.36C79.4,82.53,84,91.13,91.29,91Z"/></svg>