<?xml version="1.0" encoding="UTF-8"?>
<svg id="Final" xmlns="http://www.w3.org/2000/svg" viewBox="0 0 181.11 116.19">
  <defs>
    <style>
      .cls-1 {
        fill: #f39256;
      }

      .cls-2 {
        fill: #135451;
      }
    </style>
  </defs>
  <polygon class="cls-1" points="116.03 95.69 116.03 85.62 150.5 85.62 150.5 75.96 160.61 75.96 160.61 95.69 116.03 95.69"/>
  <polygon class="cls-1" points="65.09 20.5 65.09 30.57 30.62 30.57 30.62 40.23 20.5 40.23 20.5 20.5 65.09 20.5"/>
  <path class="cls-2" d="M150.5,55.46c-.49-5.26-2.47-10.18-5.78-14.37-5.25-6.67-13.12-10.49-21.61-10.49s-16.37,3.83-21.62,10.5c-3.3,4.19-5.27,9.11-5.76,14.36,0,0-.12,1.98-.14,2.64-.13,4.99-.96,9.82-2.85,14.35-1.11,2.72-2.56,5.31-4.33,7.73l-.03.04c-.26.37-.53.72-.81,1.06l-.04.05c-7.17,9.12-17.93,14.35-29.53,14.35s-22.37-5.23-29.53-14.35c-2.14-2.7-3.89-5.68-5.2-8.88-1.56-3.74-2.48-7.67-2.76-11.73h10.12c.49,5.25,2.46,10.17,5.76,14.36,5.24,6.68,13.12,10.51,21.61,10.51s16.37-3.83,21.62-10.51c3.3-4.19,5.27-9.11,5.76-14.36,0,0,.12-1.98.14-2.64.13-4.99.96-9.82,2.85-14.35,1.14-2.75,2.59-5.34,4.32-7.71l.03-.04c.25-.36.53-.72.82-1.08l.04-.05c7.16-9.13,17.93-14.36,29.53-14.36s22.38,5.23,29.55,14.36c2.14,2.69,3.89,5.67,5.21,8.87,1.55,3.74,2.47,7.67,2.75,11.72h-10.11Z"/>
</svg>