<?xml version="1.0" encoding="UTF-8"?>
<svg id="Ebene_2" xmlns="http://www.w3.org/2000/svg" viewBox="0 0 140.11 75.18">
  <defs>
    <style>
      .cls-1 {
        fill: #f39256;
      }

      .cls-2 {
        fill: #135451;
      }
    </style>
  </defs>
  <g id="Final">
    <g>
      <polygon class="cls-1" points="95.53 75.18 95.53 65.12 130 65.12 130 55.46 140.11 55.46 140.11 75.18 95.53 75.18"/>
      <polygon class="cls-1" points="44.58 0 44.58 10.06 10.11 10.06 10.11 19.73 0 19.73 0 0 44.58 0"/>
      <path class="cls-2" d="M130,34.95c-.49-5.26-2.47-10.18-5.78-14.37-5.25-6.67-13.12-10.49-21.61-10.49s-16.37,3.83-21.62,10.5c-3.3,4.19-5.27,9.11-5.76,14.36,0,0-.12,1.98-.14,2.64-.13,4.99-.96,9.82-2.85,14.35-1.11,2.72-2.56,5.31-4.33,7.73l-.03.04c-.26.37-.53.72-.81,1.06l-.04.05c-7.17,9.12-17.93,14.35-29.53,14.35s-22.37-5.23-29.53-14.35c-2.14-2.7-3.89-5.68-5.2-8.88-1.56-3.74-2.48-7.67-2.76-11.73h10.12c.49,5.25,2.46,10.17,5.76,14.36,5.24,6.68,13.12,10.51,21.61,10.51s16.37-3.83,21.62-10.51c3.3-4.19,5.27-9.11,5.76-14.36,0,0,.12-1.98.14-2.64.13-4.99.96-9.82,2.85-14.35,1.14-2.75,2.59-5.34,4.32-7.71l.03-.04c.25-.36.53-.72.82-1.08l.04-.05C80.24,5.23,91,0,102.61,0s22.38,5.23,29.55,14.36c2.14,2.69,3.89,5.67,5.21,8.87,1.55,3.74,2.47,7.67,2.75,11.72h-10.11Z"/>
    </g>
  </g>
</svg>