<?xml version="1.0" encoding="UTF-8"?>
<svg id="Ebene_2" xmlns="http://www.w3.org/2000/svg" viewBox="0 0 140.11 121.65">
  <defs>
    <style>
      .cls-1 {
        fill: #f39256;
      }

      .cls-2 {
        fill: #135451;
      }

      .cls-3 {
        fill: #135451;
      }
    </style>
  </defs>
  <g id="Final">
    <g>
      <g>
        <polygon class="cls-1" points="95.53 75.18 95.53 65.12 130 65.12 130 55.46 140.11 55.46 140.11 75.18 95.53 75.18"/>
        <polygon class="cls-1" points="44.58 0 44.58 10.06 10.11 10.06 10.11 19.73 0 19.73 0 0 44.58 0"/>
        <path class="cls-2" d="M130,34.95c-.49-5.26-2.47-10.18-5.78-14.37-5.25-6.67-13.12-10.49-21.61-10.49s-16.37,3.83-21.62,10.5c-3.3,4.19-5.27,9.11-5.76,14.36,0,0-.12,1.98-.14,2.64-.13,4.99-.96,9.82-2.85,14.35-1.11,2.72-2.56,5.31-4.33,7.73l-.03.04c-.26.37-.53.72-.81,1.06l-.04.05c-7.17,9.12-17.93,14.35-29.53,14.35s-22.37-5.23-29.53-14.35c-2.14-2.7-3.89-5.68-5.2-8.88-1.56-3.74-2.48-7.67-2.76-11.73h10.12c.49,5.25,2.46,10.17,5.76,14.36,5.24,6.68,13.12,10.51,21.61,10.51s16.37-3.83,21.62-10.51c3.3-4.19,5.27-9.11,5.76-14.36,0,0,.12-1.98.14-2.64.13-4.99.96-9.82,2.85-14.35,1.14-2.75,2.59-5.34,4.32-7.71l.03-.04c.25-.36.53-.72.82-1.08l.04-.05C80.24,5.23,91,0,102.61,0s22.38,5.23,29.55,14.36c2.14,2.69,3.89,5.67,5.21,8.87,1.55,3.74,2.47,7.67,2.75,11.72h-10.11Z"/>
      </g>
      <g>
        <path class="cls-3" d="M3.05,114.45c-.94-.42-1.68-1.01-2.22-1.77-.54-.75-.81-1.62-.83-2.61h2.52c.09.85.44,1.56,1.05,2.14.61.58,1.51.87,2.69.87s2.01-.28,2.66-.84.97-1.29.97-2.17c0-.69-.19-1.25-.57-1.69-.38-.43-.86-.76-1.43-.99-.57-.22-1.34-.47-2.31-.73-1.19-.31-2.15-.62-2.87-.94s-1.33-.8-1.84-1.47c-.51-.67-.77-1.56-.77-2.69,0-.99.25-1.86.75-2.62s1.21-1.35,2.12-1.77c.91-.42,1.95-.62,3.13-.62,1.7,0,3.09.43,4.17,1.27,1.08.85,1.69,1.97,1.83,3.38h-2.6c-.09-.69-.45-1.3-1.09-1.83-.64-.53-1.49-.79-2.55-.79-.99,0-1.79.26-2.41.77-.62.51-.93,1.23-.93,2.14,0,.66.19,1.19.56,1.61.37.42.83.73,1.38.95.55.22,1.31.46,2.3.74,1.19.33,2.16.65,2.88.97s1.35.81,1.87,1.48c.52.67.78,1.57.78,2.71,0,.88-.23,1.71-.7,2.49-.47.78-1.16,1.41-2.08,1.9s-2,.73-3.25.73-2.26-.21-3.21-.64Z"/>
        <path class="cls-3" d="M20.21,101.26c.93-.55,2-.82,3.23-.82s2.41.3,3.44.91c1.03.61,1.84,1.46,2.43,2.56.59,1.1.88,2.38.88,3.83s-.29,2.72-.88,3.84c-.59,1.12-1.4,2-2.43,2.62s-2.18.94-3.44.94-2.28-.27-3.21-.82c-.93-.55-1.63-1.23-2.12-2.04v9.37h-2.36v-20.98h2.36v2.62c.47-.81,1.16-1.49,2.09-2.04ZM27.13,104.93c-.43-.8-1.02-1.4-1.75-1.82-.74-.42-1.54-.62-2.43-.62s-1.67.21-2.4.64-1.32,1.04-1.77,1.84c-.44.8-.66,1.74-.66,2.79s.22,2.01.66,2.82c.44.8,1.03,1.42,1.77,1.84s1.54.64,2.4.64,1.69-.21,2.43-.64c.73-.42,1.32-1.04,1.75-1.84.43-.8.65-1.75.65-2.84s-.22-2.01-.65-2.8Z"/>
        <path class="cls-3" d="M37.45,101.09c.77-.45,1.71-.67,2.82-.67v2.44h-.62c-2.65,0-3.97,1.44-3.97,4.31v7.74h-2.36v-14.23h2.36v2.31c.42-.81,1.01-1.45,1.78-1.9Z"/>
        <path class="cls-3" d="M43,103.91c.59-1.1,1.4-1.95,2.43-2.56s2.18-.91,3.44-.91,2.33.27,3.25.8c.92.54,1.6,1.21,2.05,2.03v-2.6h2.39v14.23h-2.39v-2.65c-.47.83-1.16,1.52-2.09,2.06-.93.54-2,.82-3.23.82s-2.41-.31-3.43-.94c-1.02-.62-1.83-1.5-2.41-2.62-.59-1.13-.88-2.41-.88-3.84s.29-2.73.88-3.83ZM53.51,104.96c-.43-.8-1.02-1.41-1.75-1.83-.74-.42-1.54-.64-2.43-.64s-1.69.21-2.41.62c-.73.42-1.31,1.02-1.74,1.82-.43.8-.65,1.73-.65,2.8s.22,2.04.65,2.84,1.01,1.42,1.74,1.84,1.53.64,2.41.64,1.69-.21,2.43-.64c.73-.42,1.32-1.04,1.75-1.84.43-.8.65-1.74.65-2.82s-.22-2.01-.65-2.8Z"/>
        <path class="cls-3" d="M60.55,103.91c.59-1.1,1.41-1.95,2.45-2.56,1.05-.61,2.25-.91,3.6-.91,1.75,0,3.19.43,4.32,1.27,1.13.85,1.88,2.03,2.25,3.53h-2.55c-.24-.87-.71-1.55-1.41-2.05s-1.57-.75-2.61-.75c-1.35,0-2.44.46-3.27,1.39-.83.93-1.25,2.24-1.25,3.93s.42,3.04,1.25,3.97c.83.94,1.92,1.4,3.27,1.4,1.04,0,1.9-.24,2.6-.73.69-.48,1.17-1.18,1.43-2.08h2.55c-.38,1.45-1.14,2.62-2.28,3.49-1.14.87-2.57,1.31-4.28,1.31-1.35,0-2.55-.3-3.6-.91-1.05-.61-1.87-1.46-2.45-2.57-.59-1.11-.88-2.41-.88-3.9s.29-2.76.88-3.86Z"/>
        <path class="cls-3" d="M86.28,101.1c.87.46,1.55,1.15,2.04,2.06.49.92.74,2.03.74,3.35v8.39h-2.34v-8.05c0-1.42-.36-2.51-1.06-3.26-.71-.75-1.68-1.13-2.91-1.13s-2.24.39-2.97,1.17c-.74.78-1.1,1.91-1.1,3.4v7.87h-2.36v-19.21h2.36v7.01c.47-.73,1.11-1.29,1.93-1.69.82-.4,1.74-.6,2.77-.6,1.07,0,2.04.23,2.91.69Z"/>
        <path class="cls-3" d="M102.23,98.73v6.05h6.6v1.95h-6.6v6.23h7.37v1.95h-9.74v-18.12h9.74v1.95h-7.37Z"/>
        <path class="cls-3" d="M113.18,103.91c.59-1.1,1.41-1.95,2.45-2.56s2.25-.91,3.6-.91c1.75,0,3.19.43,4.32,1.27,1.13.85,1.88,2.03,2.25,3.53h-2.54c-.24-.87-.71-1.55-1.42-2.05s-1.57-.75-2.61-.75c-1.35,0-2.44.46-3.27,1.39-.83.93-1.25,2.24-1.25,3.93s.42,3.04,1.25,3.97c.83.94,1.92,1.4,3.27,1.4,1.04,0,1.9-.24,2.6-.73s1.17-1.18,1.43-2.08h2.54c-.38,1.45-1.14,2.62-2.28,3.49-1.14.87-2.57,1.31-4.28,1.31-1.35,0-2.55-.3-3.6-.91-1.05-.61-1.87-1.46-2.45-2.57-.59-1.11-.88-2.41-.88-3.9s.29-2.76.88-3.86Z"/>
        <path class="cls-3" d="M136.89,114.9l-5.58-6.28v6.28h-2.36v-19.21h2.36v11.3l5.48-6.31h3.3l-6.7,7.09,6.72,7.14h-3.22Z"/>
      </g>
    </g>
  </g>
</svg>